<?xml version="1.0" encoding="utf-8"?>
<!-- Generator: Adobe Illustrator 15.1.0, SVG Export Plug-In  -->
<!DOCTYPE svg PUBLIC "-//W3C//DTD SVG 1.1//EN" "http://www.w3.org/Graphics/SVG/1.1/DTD/svg11.dtd" [
	<!ENTITY ns_flows "http://ns.adobe.com/Flows/1.0/">
]>
<svg version="1.1"
	 xmlns="http://www.w3.org/2000/svg" xmlns:xlink="http://www.w3.org/1999/xlink" xmlns:a="http://ns.adobe.com/AdobeSVGViewerExtensions/3.0/"
	 x="0px" y="0px" width="150px" height="127px" viewBox="-3.709 -2.732 150 127"
	 overflow="visible" enable-background="new -3.709 -2.732 150 127" xml:space="preserve">
<defs>
</defs>
<path fill="#3DACBD" d="M4.591,104.282c2.356,0,4.162,0.43,5.418,1.288c1.259,0.86,1.887,2.2,1.887,4.028
	c0,0.951-0.17,1.768-0.506,2.448c-0.334,0.677-0.821,1.23-1.463,1.66c-0.64,0.43-1.418,0.746-2.341,0.948
	c-0.921,0.205-1.974,0.306-3.161,0.306H2.95v5.711H0v-15.99c0.688-0.157,1.448-0.263,2.282-0.314
	C3.12,104.31,3.888,104.282,4.591,104.282z M4.8,106.834c-0.748,0-1.364,0.023-1.85,0.069v5.526h1.428
	c1.421,0,2.514-0.199,3.277-0.597c0.769-0.397,1.148-1.15,1.148-2.26c0-0.53-0.102-0.977-0.304-1.333
	c-0.205-0.361-0.485-0.642-0.845-0.844c-0.358-0.203-0.783-0.347-1.275-0.436C5.89,106.878,5.362,106.834,4.8,106.834z"/>
<path fill="#3DACBD" d="M14.447,120.671V102.97l2.832-0.468v6.065c0.312-0.109,0.676-0.204,1.089-0.281
	c0.413-0.079,0.822-0.116,1.23-0.116c0.981,0,1.797,0.135,2.447,0.41c0.646,0.272,1.166,0.654,1.558,1.145
	c0.389,0.492,0.665,1.082,0.829,1.769c0.164,0.686,0.247,1.453,0.247,2.296v6.882h-2.835v-6.438c0-0.655-0.042-1.213-0.126-1.675
	c-0.088-0.459-0.229-0.833-0.425-1.122c-0.192-0.29-0.456-0.5-0.784-0.633c-0.326-0.133-0.732-0.199-1.217-0.199
	c-0.373,0-0.758,0.039-1.147,0.115c-0.389,0.081-0.678,0.15-0.866,0.213v9.739H14.447z"/>
<path fill="#3DACBD" d="M31.236,104.844c0,0.53-0.172,0.953-0.517,1.266c-0.346,0.311-0.75,0.467-1.217,0.467
	c-0.485,0-0.897-0.156-1.239-0.467c-0.346-0.312-0.517-0.735-0.517-1.266c0-0.547,0.171-0.978,0.517-1.289
	c0.342-0.312,0.754-0.467,1.239-0.467c0.467,0,0.871,0.155,1.217,0.467C31.064,103.867,31.236,104.297,31.236,104.844z
	 M30.932,120.671h-2.835v-12.245h2.835V120.671z"/>
<path fill="#3DACBD" d="M38.797,120.907c-0.842-0.016-1.541-0.109-2.094-0.281c-0.555-0.172-0.995-0.418-1.325-0.738
	c-0.326-0.317-0.557-0.717-0.69-1.192c-0.135-0.479-0.197-1.02-0.197-1.629V102.97l2.831-0.468v14.026
	c0,0.343,0.028,0.63,0.082,0.865c0.057,0.235,0.153,0.434,0.292,0.598c0.142,0.164,0.333,0.288,0.575,0.375
	c0.242,0.084,0.551,0.15,0.925,0.197L38.797,120.907z"/>
<path fill="#3F3F3C" d="M41.63,104.447h2.95v16.225h-2.95V104.447z"/>
<path fill="#3F3F3C" d="M48.326,108.825c0.547-0.156,1.258-0.303,2.132-0.446c0.875-0.138,1.843-0.208,2.904-0.208
	c0.999,0,1.833,0.135,2.505,0.41c0.671,0.272,1.206,0.654,1.604,1.145c0.396,0.492,0.679,1.087,0.844,1.78
	c0.161,0.694,0.246,1.455,0.246,2.284v6.882h-2.835v-6.438c0-0.655-0.044-1.213-0.13-1.675c-0.085-0.459-0.225-0.833-0.421-1.122
	c-0.195-0.29-0.46-0.5-0.796-0.633c-0.337-0.133-0.746-0.199-1.229-0.199c-0.36,0-0.734,0.024-1.122,0.07
	c-0.393,0.045-0.681,0.086-0.868,0.118v9.879h-2.835V108.825z"/>
<path fill="#CE3A8F" d="M67.06,120.862c-0.859,0-1.726-0.028-2.6-0.083c-0.874-0.056-1.639-0.17-2.295-0.342v-15.756
	c0.345-0.062,0.71-0.121,1.101-0.176c0.391-0.058,0.791-0.097,1.194-0.128c0.407-0.031,0.807-0.055,1.207-0.073
	c0.396-0.015,0.775-0.022,1.135-0.022c0.982,0,1.896,0.074,2.738,0.224c0.844,0.149,1.573,0.396,2.19,0.738
	c0.618,0.343,1.095,0.796,1.44,1.357c0.341,0.562,0.514,1.255,0.514,2.082c0,0.766-0.183,1.422-0.551,1.968
	c-0.365,0.547-0.875,0.982-1.532,1.311c0.985,0.33,1.71,0.814,2.177,1.452c0.47,0.639,0.704,1.454,0.704,2.437
	c0,1.669-0.608,2.921-1.826,3.758C71.438,120.443,69.572,120.862,67.06,120.862z M65.068,111.048h2.085
	c1.123,0,2.006-0.159,2.645-0.479c0.642-0.321,0.96-0.896,0.96-1.721c0-0.782-0.331-1.336-0.993-1.663
	c-0.665-0.328-1.527-0.491-2.588-0.491c-0.454,0-0.855,0.007-1.207,0.022c-0.351,0.017-0.653,0.041-0.901,0.07V111.048z
	 M65.068,113.369v4.938c0.328,0.033,0.681,0.057,1.055,0.071c0.376,0.016,0.716,0.023,1.03,0.023c0.608,0,1.175-0.038,1.697-0.116
	c0.522-0.079,0.975-0.215,1.357-0.41c0.385-0.194,0.688-0.457,0.911-0.785c0.229-0.327,0.342-0.748,0.342-1.264
	c0-0.922-0.334-1.561-1.007-1.92c-0.668-0.358-1.599-0.537-2.785-0.537H65.068z"/>
<path fill="#CE3A8F" d="M80.568,104.844c0,0.53-0.171,0.953-0.516,1.266c-0.343,0.311-0.748,0.467-1.217,0.467
	c-0.484,0-0.896-0.156-1.241-0.467c-0.343-0.312-0.516-0.735-0.516-1.266c0-0.547,0.173-0.978,0.516-1.289
	c0.345-0.312,0.757-0.467,1.241-0.467c0.469,0,0.874,0.155,1.217,0.467C80.397,103.867,80.568,104.297,80.568,104.844z
	 M80.266,120.671h-2.835v-12.245h2.835V120.671z"/>
<path fill="#CE3A8F" d="M94.947,114.54c0,0.966-0.145,1.846-0.424,2.644c-0.281,0.795-0.68,1.476-1.195,2.036
	c-0.515,0.564-1.134,1.001-1.862,1.313c-0.724,0.311-1.523,0.468-2.397,0.468s-1.671-0.157-2.391-0.468
	c-0.718-0.312-1.332-0.749-1.848-1.313c-0.517-0.561-0.918-1.241-1.207-2.036c-0.29-0.798-0.433-1.678-0.433-2.644
	c0-0.969,0.143-1.849,0.433-2.637c0.289-0.788,0.693-1.463,1.218-2.024c0.522-0.562,1.144-0.995,1.862-1.298
	c0.717-0.306,1.506-0.458,2.365-0.458c0.856,0,1.649,0.152,2.374,0.458c0.728,0.303,1.349,0.735,1.863,1.298
	c0.515,0.562,0.916,1.236,1.207,2.024C94.8,112.691,94.947,113.571,94.947,114.54z M92.041,114.54c0-1.22-0.262-2.183-0.783-2.894
	c-0.523-0.71-1.253-1.065-2.189-1.065c-0.938,0-1.666,0.355-2.189,1.065c-0.524,0.711-0.784,1.674-0.784,2.894
	c0,1.232,0.26,2.208,0.784,2.923c0.523,0.723,1.251,1.078,2.189,1.078c0.937,0,1.666-0.355,2.189-1.078
	C91.779,116.748,92.041,115.772,92.041,114.54z"/>
<path fill="#DF9A42" d="M101.559,104.447c0.345,0.593,0.724,1.318,1.148,2.178c0.419,0.857,0.85,1.76,1.287,2.703
	c0.436,0.945,0.87,1.904,1.3,2.881c0.428,0.975,0.824,1.878,1.181,2.703c0.359-0.825,0.75-1.729,1.172-2.703
	c0.422-0.977,0.852-1.936,1.288-2.881c0.437-0.943,0.865-1.846,1.288-2.703c0.419-0.859,0.804-1.585,1.146-2.178h2.66
	c0.143,1.184,0.276,2.446,0.404,3.781c0.127,1.334,0.243,2.699,0.348,4.098c0.1,1.396,0.196,2.802,0.284,4.215
	c0.087,1.411,0.164,2.791,0.228,4.131h-2.902c-0.066-1.888-0.141-3.831-0.229-5.828c-0.088-1.998-0.219-3.937-0.393-5.808
	c-0.173,0.359-0.377,0.787-0.609,1.286c-0.235,0.501-0.485,1.044-0.749,1.629c-0.267,0.584-0.535,1.19-0.807,1.814
	c-0.274,0.623-0.54,1.229-0.798,1.814c-0.26,0.585-0.497,1.132-0.713,1.639c-0.219,0.508-0.407,0.941-0.564,1.299h-2.2
	c-0.154-0.357-0.344-0.797-0.562-1.31c-0.218-0.517-0.455-1.066-0.715-1.651c-0.258-0.587-0.521-1.189-0.794-1.815
	c-0.274-0.624-0.543-1.224-0.812-1.802c-0.264-0.578-0.512-1.119-0.747-1.627c-0.234-0.508-0.438-0.933-0.608-1.276
	c-0.175,1.871-0.308,3.81-0.394,5.808c-0.088,1.997-0.163,3.94-0.228,5.828h-2.902c0.063-1.34,0.139-2.73,0.226-4.166
	c0.088-1.438,0.184-2.861,0.286-4.274c0.104-1.411,0.22-2.782,0.346-4.108c0.127-1.328,0.261-2.553,0.404-3.676H101.559z"/>
<path fill="#DF9A42" d="M117.891,114.608c0-1.075,0.16-2.021,0.478-2.832c0.321-0.812,0.746-1.486,1.275-2.026
	c0.532-0.538,1.143-0.943,1.828-1.216c0.688-0.275,1.39-0.411,2.106-0.411c1.688,0,3.002,0.523,3.944,1.568
	c0.947,1.045,1.418,2.607,1.418,4.684c0,0.155-0.004,0.331-0.01,0.525c-0.008,0.197-0.021,0.371-0.035,0.528h-8.08
	c0.078,0.983,0.427,1.744,1.043,2.283c0.616,0.537,1.51,0.806,2.681,0.806c0.688,0,1.315-0.061,1.887-0.187
	c0.568-0.125,1.017-0.258,1.345-0.397l0.374,2.318c-0.153,0.077-0.371,0.161-0.643,0.246c-0.271,0.086-0.588,0.162-0.938,0.232
	c-0.349,0.069-0.73,0.132-1.134,0.177c-0.408,0.047-0.821,0.07-1.242,0.07c-1.076,0-2.015-0.16-2.808-0.479
	c-0.799-0.32-1.453-0.765-1.969-1.336c-0.515-0.569-0.896-1.241-1.147-2.014C118.014,116.376,117.891,115.529,117.891,114.608z
	 M126.107,113.344c0-0.391-0.054-0.763-0.164-1.113s-0.269-0.655-0.479-0.915c-0.211-0.256-0.469-0.459-0.774-0.604
	c-0.303-0.149-0.667-0.226-1.089-0.226c-0.436,0-0.818,0.084-1.146,0.248c-0.33,0.164-0.605,0.376-0.832,0.645
	c-0.228,0.264-0.402,0.568-0.526,0.913c-0.126,0.342-0.212,0.692-0.258,1.053H126.107z"/>
<path fill="#DF9A42" d="M142.287,120.296c-0.562,0.173-1.269,0.329-2.116,0.47c-0.854,0.141-1.745,0.211-2.683,0.211
	c-0.968,0-1.836-0.148-2.6-0.444c-0.767-0.297-1.417-0.724-1.957-1.277c-0.536-0.554-0.951-1.228-1.237-2.013
	c-0.291-0.79-0.436-1.675-0.436-2.657c0-0.969,0.122-1.846,0.365-2.635c0.241-0.788,0.595-1.465,1.063-2.026
	s1.037-0.994,1.709-1.299c0.671-0.304,1.445-0.455,2.317-0.455c0.596,0,1.117,0.07,1.568,0.208c0.454,0.144,0.844,0.298,1.172,0.471
	v-5.879l2.833-0.468V120.296z M134.164,114.516c0,1.248,0.296,2.227,0.889,2.937c0.591,0.712,1.411,1.064,2.459,1.064
	c0.451,0,0.839-0.019,1.16-0.057c0.317-0.038,0.58-0.083,0.782-0.13v-7.024c-0.251-0.171-0.58-0.329-0.995-0.479
	c-0.414-0.148-0.854-0.223-1.323-0.223c-1.03,0-1.78,0.353-2.26,1.054C134.399,112.362,134.164,113.312,134.164,114.516z"/>
<line fill="none" stroke="#231F20" stroke-width="2" stroke-miterlimit="10" x1="31.959" y1="57.167" x2="65.091" y2="51.757"/>
<circle fill="#3DACBD" stroke="#231F20" stroke-width="2" stroke-miterlimit="10" cx="31.959" cy="57.167" r="3.956"/>
<path fill="#3DACBD" stroke="#231F20" stroke-width="2" stroke-miterlimit="10" d="M74.809,58.263
	c3.323-2.897,7.437-4.307,11.522-4.283c0.026-0.258,0.059-0.514,0.075-0.776c0.351-5.182-1.177-10.058-4.002-13.962
	c-4.511,1.697-9.755,1.175-13.953-1.856c-2.494-1.798-4.264-4.228-5.253-6.911c-10.301,0.903-18.699,9.191-19.424,19.833
	C42.977,62.079,51.872,72.27,63.641,73.07c1.804,0.124,3.57,0.017,5.27-0.289C68.482,67.469,70.488,62.034,74.809,58.263z"/>
<line fill="#CE3A8F" stroke="#231F20" stroke-width="2" stroke-miterlimit="10" x1="86.16" y1="3.753" x2="77.154" y2="25.325"/>
<path fill="#CE3A8F" stroke="#231F20" stroke-width="2" stroke-miterlimit="10" d="M84.545,5.987
	c-1.23-0.89-1.508-2.612-0.618-3.846c0.891-1.233,2.612-1.509,3.846-0.621c1.231,0.89,1.511,2.611,0.62,3.844
	C87.501,6.598,85.781,6.876,84.545,5.987z"/>
<path fill="#CE3A8F" stroke="#231F20" stroke-width="2" stroke-miterlimit="10" d="M82.404,39.242
	c2.646-0.995,5.038-2.75,6.813-5.212c4.808-6.659,3.306-15.957-3.355-20.766c-6.664-4.809-15.96-3.307-20.77,3.354
	c-3.01,4.168-3.546,9.369-1.895,13.856c1.096-0.096,2.211-0.11,3.344-0.033C73.125,30.889,78.813,34.28,82.404,39.242z"/>
<line fill="#DF9A42" stroke="#231F20" stroke-width="2" stroke-miterlimit="10" x1="108.428" y1="87.321" x2="86.243" y2="71.365"/>
<path fill="#DF9A42" stroke="#231F20" stroke-width="2" stroke-miterlimit="10" d="M99.345,59.93
	c-3.415-3.911-8.197-5.924-13.014-5.95c-0.996,9.6-8.262,17.14-17.421,18.801c0.29,3.58,1.687,7.104,4.229,10.019
	c6.317,7.235,17.302,7.986,24.539,1.67C104.916,78.154,105.66,67.168,99.345,59.93z"/>
<path fill="#DF9A42" stroke="#231F20" stroke-width="2" stroke-miterlimit="10" d="M106.313,84.894
	c1.336-1.168,3.373-1.03,4.54,0.312c1.169,1.341,1.03,3.371-0.309,4.54c-1.339,1.17-3.371,1.029-4.54-0.308
	C104.833,88.098,104.973,86.065,106.313,84.894z"/>
</svg>
