<?xml version="1.0" encoding="utf-8"?>
<!-- Generator: Adobe Illustrator 15.1.0, SVG Export Plug-In  -->
<!DOCTYPE svg PUBLIC "-//W3C//DTD SVG 1.1//EN" "http://www.w3.org/Graphics/SVG/1.1/DTD/svg11.dtd" [
	<!ENTITY ns_flows "http://ns.adobe.com/Flows/1.0/">
]>
<svg version="1.1"
	 xmlns="http://www.w3.org/2000/svg" xmlns:xlink="http://www.w3.org/1999/xlink" xmlns:a="http://ns.adobe.com/AdobeSVGViewerExtensions/3.0/"
	 x="0px" y="0px" width="746px" height="128px" viewBox="-4.797 -2.902 746 128"
	 overflow="visible" enable-background="new -4.797 -2.902 746 128" xml:space="preserve">
<defs>
</defs>
<line fill="none" stroke="#231F20" stroke-width="2" stroke-miterlimit="10" x1="6.3" y1="76.275" x2="50.701" y2="69.022"/>
<circle fill="#3DACBD" stroke="#231F20" stroke-width="2" stroke-miterlimit="10" cx="6.3" cy="76.274" r="5.3"/>
<path fill="#3DACBD" stroke="#231F20" stroke-width="2" stroke-miterlimit="10" d="M63.727,77.744
	c4.455-3.885,9.966-5.771,15.443-5.74c0.036-0.346,0.074-0.689,0.098-1.04c0.472-6.945-1.575-13.48-5.363-18.712
	c-6.042,2.273-13.073,1.575-18.701-2.488c-3.342-2.411-5.713-5.667-7.036-9.263C34.359,41.709,23.104,52.82,22.135,67.082
	c-1.069,15.775,10.85,29.436,26.626,30.508c2.417,0.163,4.783,0.02,7.062-0.393C55.25,90.082,57.939,82.797,63.727,77.744z"/>
<line fill="#CE3A8F" stroke="#231F20" stroke-width="2" stroke-miterlimit="10" x1="78.939" y1="4.69" x2="66.872" y2="33.599"/>
<path fill="#CE3A8F" stroke="#231F20" stroke-width="2" stroke-miterlimit="10" d="M76.778,7.683
	c-1.651-1.194-2.023-3.5-0.831-5.153c1.193-1.652,3.498-2.024,5.151-0.832c1.654,1.194,2.024,3.5,0.834,5.154
	C80.739,8.501,78.432,8.876,76.778,7.683z"/>
<path fill="#CE3A8F" stroke="#231F20" stroke-width="2" stroke-miterlimit="10" d="M73.904,52.251
	c3.546-1.332,6.75-3.686,9.13-6.983c6.445-8.927,4.433-21.387-4.497-27.832c-8.928-6.445-21.386-4.433-27.831,4.495
	c-4.032,5.586-4.753,12.558-2.539,18.57c1.466-0.128,2.963-0.147,4.477-0.045C61.474,41.055,69.096,45.603,73.904,52.251z"/>
<line fill="#DF9A42" stroke="#231F20" stroke-width="2" stroke-miterlimit="10" x1="108.784" y1="116.685" x2="79.052" y2="95.302"/>
<path fill="#DF9A42" stroke="#231F20" stroke-width="2" stroke-miterlimit="10" d="M96.611,79.978
	c-4.578-5.245-10.986-7.938-17.441-7.975c-1.339,12.864-11.073,22.971-23.347,25.193c0.391,4.801,2.26,9.524,5.667,13.431
	c8.466,9.697,23.188,10.699,32.887,2.233C104.075,104.4,105.075,89.677,96.611,79.978z"/>
<circle fill="#DF9A42" stroke="#231F20" stroke-width="2" stroke-miterlimit="10" cx="108.785" cy="116.685" r="4.315"/>
<path fill="#3DACBD" d="M158.837,22.822c6.202,0,10.955,1.129,14.262,3.388c3.306,2.259,4.959,5.791,4.959,10.596
	c0,2.505-0.44,4.651-1.323,6.438c-0.885,1.785-2.167,3.245-3.851,4.373c-1.686,1.131-3.738,1.963-6.16,2.495
	c-2.424,0.534-5.197,0.802-8.317,0.802h-3.882v15.031h-7.761V23.869c1.807-0.41,3.808-0.688,6.007-0.832
	C154.967,22.894,156.989,22.822,158.837,22.822z M159.392,29.537c-1.972,0-3.594,0.062-4.867,0.185V44.26h3.758
	c3.738,0,6.613-0.524,8.625-1.571c2.013-1.047,3.02-3.028,3.02-5.945c0-1.395-0.268-2.565-0.802-3.511
	c-0.533-0.943-1.273-1.684-2.218-2.217c-0.945-0.535-2.063-0.914-3.357-1.141C162.256,29.65,160.87,29.537,159.392,29.537z"/>
<path fill="#3DACBD" d="M184.771,65.945V19.372l7.455-1.232v15.955c0.82-0.286,1.774-0.532,2.864-0.739
	c1.087-0.205,2.165-0.308,3.234-0.308c2.587,0,4.732,0.359,6.438,1.078c1.703,0.719,3.07,1.726,4.097,3.019
	c1.026,1.294,1.756,2.844,2.188,4.651c0.43,1.807,0.646,3.818,0.646,6.036v18.112h-7.453V49.002c0-1.724-0.114-3.192-0.34-4.404
	c-0.227-1.211-0.595-2.195-1.109-2.956c-0.514-0.76-1.199-1.314-2.062-1.664c-0.862-0.349-1.931-0.523-3.204-0.523
	c-0.984,0-1.992,0.103-3.019,0.308c-1.027,0.206-1.786,0.391-2.278,0.555v25.628H184.771z"/>
<path fill="#3DACBD" d="M228.94,24.3c0,1.397-0.451,2.506-1.354,3.327c-0.905,0.822-1.972,1.233-3.203,1.233
	c-1.273,0-2.362-0.411-3.266-1.233c-0.903-0.82-1.354-1.93-1.354-3.327c0-1.437,0.451-2.566,1.354-3.388
	c0.903-0.821,1.992-1.232,3.266-1.232c1.231,0,2.298,0.411,3.203,1.232C228.489,21.734,228.94,22.864,228.94,24.3z M228.141,65.945
	h-7.455V33.726h7.455V65.945z"/>
<path fill="#3DACBD" d="M248.837,66.56c-2.217-0.04-4.056-0.287-5.512-0.738c-1.46-0.452-2.619-1.099-3.481-1.941
	c-0.862-0.84-1.469-1.889-1.817-3.142c-0.35-1.252-0.523-2.68-0.523-4.281V19.372l7.453-1.232v36.9c0,0.904,0.072,1.664,0.216,2.279
	s0.401,1.139,0.771,1.57c0.37,0.432,0.871,0.761,1.509,0.986c0.636,0.227,1.448,0.401,2.433,0.523L248.837,66.56z"/>
<path fill="#3F3F3C" d="M256.292,23.253h7.761v42.691h-7.761V23.253z"/>
<path fill="#3F3F3C" d="M273.909,34.774c1.438-0.411,3.307-0.802,5.606-1.171s4.845-0.554,7.639-0.554
	c2.628,0,4.825,0.359,6.591,1.078c1.766,0.719,3.173,1.726,4.22,3.019c1.047,1.294,1.788,2.854,2.219,4.681
	c0.43,1.828,0.646,3.83,0.646,6.007v18.112h-7.453V49.002c0-1.724-0.114-3.192-0.339-4.404c-0.227-1.211-0.596-2.195-1.109-2.956
	c-0.514-0.76-1.211-1.314-2.094-1.664c-0.885-0.349-1.963-0.523-3.234-0.523c-0.945,0-1.932,0.062-2.958,0.184
	c-1.026,0.124-1.785,0.227-2.277,0.31v25.997h-7.455V34.774z"/>
<path fill="#CE3A8F" d="M323.191,66.437c-2.259,0-4.539-0.072-6.839-0.216s-4.311-0.44-6.036-0.894V23.869
	c0.902-0.164,1.867-0.317,2.896-0.462c1.025-0.143,2.073-0.256,3.141-0.339c1.069-0.082,2.127-0.144,3.174-0.185
	c1.047-0.04,2.042-0.061,2.987-0.061c2.588,0,4.99,0.195,7.208,0.585c2.217,0.391,4.138,1.038,5.759,1.941
	c1.622,0.904,2.887,2.094,3.789,3.572c0.903,1.479,1.356,3.307,1.356,5.483c0,2.012-0.484,3.737-1.448,5.174
	c-0.966,1.439-2.311,2.588-4.034,3.45c2.586,0.862,4.497,2.136,5.728,3.82c1.233,1.685,1.849,3.818,1.849,6.406
	c0,4.396-1.602,7.69-4.805,9.888C334.712,65.338,329.803,66.437,323.191,66.437z M317.956,40.626h5.482
	c2.956,0,5.276-0.422,6.961-1.264c1.683-0.842,2.525-2.351,2.525-4.528c0-2.053-0.874-3.511-2.617-4.373
	c-1.747-0.863-4.016-1.294-6.808-1.294c-1.192,0-2.249,0.021-3.174,0.061c-0.924,0.042-1.714,0.103-2.37,0.185V40.626z
	 M317.956,46.724v12.999c0.862,0.083,1.786,0.144,2.771,0.185c0.986,0.04,1.888,0.061,2.711,0.061c1.602,0,3.089-0.102,4.466-0.308
	c1.375-0.205,2.565-0.564,3.573-1.078c1.005-0.513,1.807-1.202,2.401-2.064c0.596-0.86,0.895-1.97,0.895-3.326
	c0-2.422-0.885-4.106-2.648-5.052c-1.768-0.943-4.211-1.416-7.332-1.416H317.956z"/>
<path fill="#CE3A8F" d="M358.737,24.3c0,1.397-0.453,2.506-1.356,3.327c-0.903,0.822-1.971,1.233-3.203,1.233
	c-1.273,0-2.362-0.411-3.264-1.233c-0.905-0.82-1.356-1.93-1.356-3.327c0-1.437,0.451-2.566,1.356-3.388
	c0.901-0.821,1.99-1.232,3.264-1.232c1.232,0,2.3,0.411,3.203,1.232C358.284,21.734,358.737,22.864,358.737,24.3z M357.936,65.945
	h-7.453V33.726h7.453V65.945z"/>
<path fill="#CE3A8F" d="M396.561,49.804c0,2.547-0.37,4.867-1.109,6.961c-0.739,2.096-1.786,3.881-3.143,5.359
	c-1.354,1.479-2.987,2.63-4.896,3.45c-1.909,0.821-4.014,1.232-6.314,1.232s-4.395-0.411-6.284-1.232
	c-1.889-0.82-3.511-1.971-4.865-3.45c-1.356-1.479-2.414-3.264-3.174-5.359c-0.761-2.094-1.139-4.414-1.139-6.961
	c0-2.545,0.378-4.856,1.139-6.93c0.76-2.073,1.827-3.851,3.203-5.329c1.377-1.478,3.008-2.618,4.898-3.419
	c1.888-0.801,3.963-1.201,6.222-1.201c2.258,0,4.343,0.4,6.254,1.201c1.909,0.801,3.542,1.941,4.896,3.419
	c1.354,1.479,2.412,3.256,3.172,5.329C396.181,44.948,396.561,47.259,396.561,49.804z M388.922,49.804
	c0-3.203-0.689-5.739-2.064-7.607c-1.377-1.869-3.295-2.803-5.76-2.803c-2.464,0-4.384,0.934-5.761,2.803
	c-1.376,1.868-2.062,4.404-2.062,7.607c0,3.245,0.687,5.812,2.062,7.7c1.377,1.891,3.297,2.834,5.761,2.834
	c2.465,0,4.383-0.943,5.76-2.834C388.232,55.617,388.922,53.049,388.922,49.804z"/>
<path fill="#DF9A42" d="M413.962,23.253c0.903,1.561,1.909,3.47,3.019,5.729c1.109,2.259,2.238,4.63,3.39,7.115
	c1.148,2.486,2.289,5.012,3.419,7.577c1.128,2.567,2.165,4.939,3.11,7.116c0.944-2.177,1.971-4.549,3.08-7.116
	c1.109-2.565,2.237-5.091,3.389-7.577c1.148-2.484,2.278-4.855,3.388-7.115c1.109-2.259,2.115-4.168,3.019-5.729h6.994
	c0.376,3.122,0.731,6.438,1.067,9.948c0.332,3.512,0.637,7.105,0.907,10.78c0.272,3.677,0.523,7.372,0.753,11.09
	c0.23,3.717,0.43,7.342,0.598,10.873h-7.64c-0.167-4.969-0.367-10.083-0.597-15.339c-0.229-5.258-0.575-10.351-1.036-15.278
	c-0.451,0.945-0.985,2.074-1.602,3.389c-0.615,1.314-1.273,2.741-1.97,4.28c-0.7,1.54-1.408,3.133-2.127,4.774
	c-0.719,1.645-1.417,3.234-2.094,4.773c-0.678,1.541-1.305,2.98-1.88,4.312c-0.575,1.336-1.068,2.476-1.478,3.421h-5.791
	c-0.411-0.945-0.904-2.096-1.479-3.45c-0.576-1.356-1.201-2.803-1.879-4.344c-0.677-1.541-1.377-3.131-2.094-4.775
	c-0.719-1.641-1.429-3.223-2.127-4.742c-0.698-1.519-1.354-2.946-1.971-4.281c-0.615-1.334-1.149-2.453-1.602-3.357
	c-0.461,4.928-0.806,10.021-1.037,15.278c-0.229,5.256-0.428,10.37-0.596,15.339h-7.639c0.167-3.531,0.365-7.188,0.596-10.966
	s0.48-7.524,0.753-11.243c0.271-3.716,0.575-7.32,0.909-10.811c0.334-3.491,0.689-6.715,1.067-9.672H413.962z"/>
<path fill="#DF9A42" d="M456.931,49.989c0-2.833,0.421-5.317,1.263-7.453c0.841-2.136,1.961-3.912,3.357-5.329
	c1.396-1.417,2.997-2.484,4.805-3.203c1.807-0.719,3.655-1.078,5.544-1.078c4.437,0,7.896,1.377,10.382,4.127
	c2.484,2.752,3.727,6.859,3.727,12.32c0,0.411-0.012,0.874-0.031,1.387c-0.021,0.514-0.052,0.977-0.093,1.386h-21.253
	c0.205,2.587,1.119,4.589,2.742,6.006c1.622,1.417,3.974,2.127,7.053,2.127c1.807,0,3.46-0.164,4.96-0.494
	c1.498-0.328,2.68-0.678,3.542-1.047l0.986,6.099c-0.413,0.206-0.977,0.422-1.695,0.646c-0.719,0.227-1.539,0.432-2.465,0.616
	c-0.923,0.186-1.92,0.339-2.987,0.462c-1.068,0.124-2.156,0.185-3.266,0.185c-2.833,0-5.297-0.422-7.392-1.263
	c-2.094-0.84-3.819-2.011-5.176-3.511c-1.354-1.498-2.36-3.266-3.017-5.298C457.259,54.64,456.931,52.412,456.931,49.989z
	 M478.553,46.662c0-1.024-0.144-2.001-0.432-2.926c-0.287-0.924-0.707-1.724-1.262-2.402c-0.555-0.678-1.231-1.211-2.033-1.602
	c-0.8-0.39-1.756-0.585-2.864-0.585c-1.149,0-2.156,0.216-3.019,0.646s-1.592,0.997-2.188,1.693c-0.596,0.7-1.058,1.5-1.386,2.403
	c-0.33,0.904-0.555,1.828-0.679,2.771H478.553z"/>
<path fill="#DF9A42" d="M521.121,64.958c-1.478,0.452-3.337,0.863-5.574,1.231c-2.239,0.37-4.59,0.555-7.054,0.555
	c-2.547,0-4.826-0.391-6.839-1.17c-2.013-0.78-3.727-1.898-5.144-3.358c-1.417-1.456-2.505-3.223-3.265-5.297
	c-0.761-2.073-1.141-4.404-1.141-6.992c0-2.547,0.319-4.855,0.955-6.931c0.638-2.072,1.572-3.85,2.803-5.327
	c1.233-1.479,2.731-2.619,4.497-3.42s3.799-1.201,6.101-1.201c1.559,0,2.936,0.184,4.126,0.554s2.219,0.781,3.081,1.232V19.372
	l7.453-1.232V64.958z M499.745,49.744c0,3.285,0.779,5.862,2.341,7.73c1.561,1.869,3.717,2.804,6.469,2.804
	c1.19,0,2.207-0.052,3.05-0.155c0.841-0.102,1.529-0.215,2.063-0.339V41.302c-0.657-0.451-1.531-0.871-2.618-1.262
	c-1.089-0.391-2.249-0.586-3.481-0.586c-2.709,0-4.692,0.925-5.943,2.773C500.371,44.075,499.745,46.581,499.745,49.744z"/>
<path fill="#47443F" d="M146.812,83.614h1.904v19.403h-1.904V83.614z"/>
<path fill="#47443F" d="M153.644,89.044c0.542-0.148,1.271-0.316,2.185-0.503c0.914-0.188,2.034-0.281,3.36-0.281
	c1.101,0,2.021,0.159,2.758,0.477c0.736,0.317,1.325,0.771,1.765,1.358c0.438,0.587,0.75,1.293,0.938,2.113
	c0.186,0.822,0.279,1.727,0.279,2.716v8.093h-1.82v-7.504c0-1.026-0.068-1.895-0.209-2.604c-0.141-0.709-0.374-1.287-0.7-1.735
	c-0.326-0.449-0.756-0.771-1.287-0.966c-0.533-0.197-1.2-0.294-2.004-0.294c-0.857,0-1.6,0.047-2.225,0.139
	c-0.627,0.094-1.033,0.179-1.219,0.254v12.711h-1.82V89.044z"/>
<path fill="#47443F" d="M172.544,101.729c1.045,0,1.907-0.172,2.589-0.519c0.681-0.346,1.023-0.928,1.023-1.75
	c0-0.391-0.062-0.729-0.183-1.008c-0.122-0.279-0.322-0.531-0.602-0.756c-0.28-0.224-0.648-0.438-1.106-0.645
	c-0.458-0.204-1.022-0.446-1.694-0.728c-0.542-0.224-1.055-0.452-1.54-0.687c-0.486-0.232-0.914-0.503-1.288-0.811
	c-0.373-0.308-0.672-0.677-0.896-1.106c-0.224-0.43-0.336-0.951-0.336-1.568c0-1.175,0.443-2.128,1.331-2.856
	c0.886-0.727,2.104-1.091,3.653-1.091c0.989,0,1.807,0.083,2.45,0.252c0.644,0.167,1.097,0.317,1.357,0.448l-0.42,1.623
	c-0.224-0.112-0.602-0.261-1.133-0.448c-0.533-0.186-1.312-0.279-2.339-0.279c-0.411,0-0.797,0.042-1.161,0.126
	c-0.364,0.085-0.687,0.216-0.968,0.393c-0.279,0.178-0.503,0.403-0.672,0.674c-0.167,0.271-0.251,0.603-0.251,0.996
	c0,0.393,0.075,0.73,0.224,1.01c0.149,0.281,0.368,0.528,0.659,0.744c0.289,0.215,0.644,0.415,1.063,0.602
	c0.419,0.186,0.9,0.391,1.441,0.612c0.561,0.224,1.097,0.451,1.61,0.683c0.513,0.232,0.966,0.513,1.358,0.839
	c0.392,0.327,0.709,0.719,0.951,1.177c0.242,0.456,0.364,1.031,0.364,1.722c0,1.307-0.489,2.296-1.471,2.968
	c-0.979,0.672-2.318,1.008-4.017,1.008c-1.271,0-2.241-0.108-2.913-0.322s-1.12-0.378-1.344-0.489l0.477-1.653
	c0.057,0.038,0.177,0.099,0.364,0.184c0.186,0.084,0.438,0.176,0.755,0.279s0.695,0.192,1.134,0.266
	C171.456,101.692,171.964,101.729,172.544,101.729z"/>
<path fill="#47443F" d="M183.267,88.542h5.77v1.539h-5.77v7.7c0,0.822,0.07,1.489,0.21,2.002c0.141,0.514,0.341,0.91,0.603,1.19
	c0.262,0.279,0.578,0.467,0.952,0.56c0.373,0.094,0.784,0.141,1.231,0.141c0.766,0,1.381-0.088,1.848-0.266
	c0.468-0.179,0.832-0.341,1.093-0.491l0.448,1.513c-0.263,0.167-0.719,0.359-1.372,0.573c-0.654,0.214-1.364,0.322-2.128,0.322
	c-0.896,0-1.648-0.116-2.255-0.351c-0.606-0.232-1.092-0.587-1.456-1.063c-0.364-0.476-0.62-1.067-0.769-1.778
	c-0.15-0.708-0.226-1.549-0.226-2.519V84.286l1.82-0.336V88.542z"/>
<path fill="#47443F" d="M194.634,84.173c0,0.43-0.129,0.77-0.391,1.021s-0.579,0.378-0.953,0.378c-0.373,0-0.69-0.126-0.951-0.378
	s-0.393-0.592-0.393-1.021s0.132-0.771,0.393-1.022c0.261-0.251,0.578-0.378,0.951-0.378c0.374,0,0.691,0.127,0.953,0.378
	C194.505,83.403,194.634,83.744,194.634,84.173z M194.216,103.017h-1.82V88.542h1.82V103.017z"/>
<path fill="#47443F" d="M200.739,88.542h5.769v1.539h-5.769v7.7c0,0.822,0.07,1.489,0.209,2.002c0.141,0.514,0.341,0.91,0.604,1.19
	c0.261,0.279,0.578,0.467,0.951,0.56c0.373,0.094,0.784,0.141,1.231,0.141c0.766,0,1.381-0.088,1.849-0.266
	c0.467-0.179,0.831-0.341,1.092-0.491l0.448,1.513c-0.263,0.167-0.719,0.359-1.372,0.573c-0.654,0.214-1.363,0.322-2.128,0.322
	c-0.896,0-1.648-0.116-2.255-0.351c-0.605-0.232-1.092-0.587-1.456-1.063c-0.364-0.476-0.62-1.067-0.769-1.778
	c-0.15-0.708-0.225-1.549-0.225-2.519V84.286l1.82-0.336V88.542z"/>
<path fill="#47443F" d="M220.982,102.513c-0.542,0.148-1.269,0.317-2.185,0.504c-0.914,0.188-2.034,0.279-3.359,0.279
	c-1.082,0-1.987-0.158-2.715-0.475c-0.729-0.317-1.317-0.766-1.765-1.344c-0.448-0.58-0.771-1.28-0.966-2.101
	c-0.196-0.821-0.295-1.727-0.295-2.717v-8.119h1.82v7.531c0,1.026,0.075,1.896,0.225,2.604c0.148,0.71,0.391,1.283,0.727,1.723
	c0.336,0.438,0.771,0.756,1.304,0.951c0.531,0.195,1.18,0.294,1.945,0.294c0.859,0,1.604-0.047,2.24-0.14
	c0.635-0.094,1.036-0.178,1.203-0.253V88.542h1.82V102.513z"/>
<path fill="#47443F" d="M227.506,88.542h5.769v1.539h-5.769v7.7c0,0.822,0.07,1.489,0.21,2.002c0.141,0.514,0.34,0.91,0.603,1.19
	c0.261,0.279,0.578,0.467,0.952,0.56c0.373,0.094,0.784,0.141,1.23,0.141c0.766,0,1.382-0.088,1.849-0.266
	c0.468-0.179,0.831-0.341,1.093-0.491l0.448,1.513c-0.263,0.167-0.719,0.359-1.372,0.573c-0.654,0.214-1.364,0.322-2.128,0.322
	c-0.897,0-1.648-0.116-2.255-0.351c-0.606-0.232-1.092-0.587-1.456-1.063c-0.364-0.476-0.62-1.067-0.769-1.778
	c-0.15-0.708-0.226-1.549-0.226-2.519V84.286l1.82-0.336V88.542z"/>
<path fill="#47443F" d="M235.766,95.765c0-1.269,0.183-2.375,0.547-3.318c0.364-0.942,0.839-1.731,1.428-2.366
	c0.588-0.634,1.26-1.106,2.016-1.414c0.757-0.308,1.534-0.461,2.338-0.461c1.773,0,3.188,0.578,4.242,1.736
	c1.055,1.156,1.583,2.938,1.583,5.347c0,0.15-0.005,0.3-0.015,0.448c-0.009,0.15-0.023,0.289-0.042,0.421h-10.164
	c0.057,1.773,0.494,3.136,1.315,4.087c0.822,0.952,2.128,1.429,3.921,1.429c0.988,0,1.773-0.094,2.352-0.28
	c0.578-0.186,0.998-0.345,1.261-0.477l0.336,1.569c-0.263,0.149-0.752,0.326-1.471,0.531c-0.719,0.206-1.563,0.308-2.534,0.308
	c-1.271,0-2.352-0.187-3.248-0.56c-0.896-0.373-1.633-0.896-2.211-1.568c-0.58-0.672-1-1.469-1.262-2.395
	C235.896,97.879,235.766,96.867,235.766,95.765z M246.042,94.617c-0.037-1.511-0.393-2.688-1.064-3.528
	c-0.672-0.839-1.623-1.259-2.855-1.259c-0.653,0-1.236,0.131-1.75,0.392c-0.515,0.261-0.961,0.611-1.344,1.05
	c-0.383,0.439-0.682,0.947-0.896,1.525c-0.216,0.58-0.343,1.186-0.378,1.82H246.042z"/>
<path fill="#47443F" d="M263.681,81.289c0.785,0,1.424,0.061,1.919,0.183c0.494,0.122,0.815,0.229,0.966,0.322l-0.364,1.567
	c-0.206-0.093-0.509-0.191-0.909-0.294c-0.401-0.102-0.911-0.153-1.526-0.153c-1.288,0-2.208,0.326-2.758,0.979
	c-0.552,0.653-0.827,1.698-0.827,3.136v1.513h5.825v1.539h-5.825v12.937h-1.82V86.973c0-1.885,0.435-3.304,1.304-4.257
	C260.531,81.765,261.87,81.289,263.681,81.289z"/>
<path fill="#47443F" d="M281.237,95.793c0,1.139-0.164,2.175-0.49,3.107c-0.327,0.935-0.783,1.727-1.372,2.38
	c-0.588,0.654-1.283,1.162-2.086,1.526c-0.802,0.364-1.689,0.546-2.659,0.546c-0.971,0-1.858-0.182-2.66-0.546
	c-0.803-0.364-1.498-0.872-2.086-1.526c-0.589-0.653-1.047-1.445-1.373-2.38c-0.326-0.933-0.489-1.969-0.489-3.107
	c0-1.14,0.163-2.175,0.489-3.108c0.326-0.933,0.784-1.73,1.373-2.394c0.588-0.662,1.283-1.177,2.086-1.54
	c0.802-0.364,1.689-0.546,2.66-0.546c0.97,0,1.857,0.182,2.659,0.546c0.803,0.363,1.498,0.878,2.086,1.54
	c0.589,0.663,1.045,1.461,1.372,2.394C281.073,93.619,281.237,94.654,281.237,95.793z M279.306,95.793
	c0-1.812-0.42-3.253-1.261-4.327c-0.839-1.073-1.978-1.609-3.415-1.609s-2.577,0.536-3.416,1.609
	c-0.841,1.074-1.261,2.516-1.261,4.327c0,1.811,0.42,3.248,1.261,4.312c0.839,1.063,1.979,1.595,3.416,1.595
	s2.576-0.531,3.415-1.595C278.886,99.042,279.306,97.604,279.306,95.793z"/>
<path fill="#47443F" d="M290.112,88.26c0.597,0,1.162,0.047,1.693,0.141c0.533,0.094,0.901,0.188,1.106,0.28l-0.364,1.568
	c-0.148-0.075-0.451-0.154-0.909-0.239c-0.458-0.083-1.06-0.125-1.807-0.125c-0.784,0-1.414,0.057-1.891,0.167
	c-0.475,0.113-0.787,0.207-0.938,0.28v12.685h-1.82V89.213c0.468-0.206,1.111-0.415,1.934-0.631
	C287.938,88.369,288.938,88.26,290.112,88.26z"/>
<path fill="#47443F" d="M307.053,83.445c2.744,0,4.787,0.523,6.131,1.568c1.344,1.046,2.016,2.53,2.016,4.452
	c0,1.102-0.195,2.039-0.587,2.813c-0.393,0.775-0.952,1.4-1.68,1.877c-0.729,0.475-1.62,0.82-2.675,1.036
	c-1.055,0.214-2.244,0.321-3.569,0.321h-2.633v7.504h-1.903V83.978c0.672-0.188,1.46-0.322,2.366-0.406
	C305.423,83.487,306.269,83.445,307.053,83.445z M307.136,85.096c-0.71,0-1.312,0.025-1.807,0.07
	c-0.493,0.047-0.919,0.089-1.273,0.127v8.567h2.408c1.026,0,1.956-0.06,2.786-0.182c0.831-0.122,1.54-0.346,2.128-0.672
	c0.589-0.326,1.04-0.779,1.357-1.357s0.477-1.317,0.477-2.213c0-0.857-0.173-1.567-0.519-2.128c-0.346-0.56-0.802-1.003-1.372-1.33
	c-0.568-0.326-1.217-0.555-1.945-0.686C308.648,85.162,307.901,85.096,307.136,85.096z"/>
<path fill="#47443F" d="M318.615,103.017V81.625l1.82-0.336v7.672c0.597-0.224,1.205-0.396,1.82-0.518
	c0.615-0.121,1.231-0.183,1.849-0.183c1.118,0,2.053,0.159,2.8,0.477c0.745,0.317,1.344,0.771,1.792,1.358
	c0.447,0.587,0.76,1.293,0.938,2.113c0.177,0.822,0.266,1.727,0.266,2.716v8.093h-1.82v-7.504c0-1.026-0.068-1.895-0.209-2.604
	c-0.141-0.709-0.374-1.287-0.7-1.735c-0.326-0.449-0.761-0.771-1.302-0.966c-0.542-0.197-1.224-0.294-2.045-0.294
	c-0.317,0-0.658,0.028-1.022,0.083c-0.363,0.056-0.704,0.117-1.021,0.183s-0.602,0.136-0.854,0.209
	c-0.253,0.075-0.415,0.132-0.49,0.169v12.46H318.615z"/>
<path fill="#47443F" d="M336.787,84.173c0,0.43-0.131,0.77-0.393,1.021c-0.261,0.252-0.578,0.378-0.951,0.378
	s-0.69-0.126-0.951-0.378c-0.263-0.252-0.393-0.592-0.393-1.021s0.13-0.771,0.393-1.022c0.261-0.251,0.578-0.378,0.951-0.378
	s0.69,0.127,0.951,0.378C336.656,83.403,336.787,83.744,336.787,84.173z M336.367,103.017h-1.82V88.542h1.82V103.017z"/>
<path fill="#47443F" d="M344.852,103.27c-0.616-0.021-1.153-0.099-1.611-0.239c-0.456-0.139-0.839-0.354-1.146-0.644
	c-0.309-0.289-0.543-0.663-0.7-1.12c-0.159-0.457-0.239-1.031-0.239-1.723v-17.92l1.82-0.336v18.2c0,0.448,0.042,0.808,0.127,1.078
	c0.084,0.271,0.209,0.485,0.378,0.644c0.167,0.159,0.388,0.276,0.657,0.35c0.271,0.075,0.593,0.141,0.966,0.197L344.852,103.27z"/>
<path fill="#47443F" d="M360.672,95.793c0,1.139-0.164,2.175-0.491,3.107c-0.326,0.935-0.784,1.727-1.372,2.38
	c-0.587,0.654-1.284,1.162-2.086,1.526c-0.803,0.364-1.688,0.546-2.66,0.546c-0.971,0-1.856-0.182-2.66-0.546
	c-0.803-0.364-1.498-0.872-2.086-1.526c-0.587-0.653-1.045-1.445-1.371-2.38c-0.327-0.933-0.491-1.969-0.491-3.107
	c0-1.14,0.164-2.175,0.491-3.108c0.326-0.933,0.784-1.73,1.371-2.394c0.588-0.662,1.283-1.177,2.086-1.54
	c0.804-0.364,1.689-0.546,2.66-0.546c0.972,0,1.857,0.182,2.66,0.546c0.802,0.363,1.499,0.878,2.086,1.54
	c0.588,0.663,1.046,1.461,1.372,2.394C360.508,93.619,360.672,94.654,360.672,95.793z M358.738,95.793
	c0-1.812-0.42-3.253-1.259-4.327c-0.841-1.073-1.979-1.609-3.417-1.609s-2.575,0.536-3.416,1.609
	c-0.839,1.074-1.26,2.516-1.26,4.327c0,1.811,0.421,3.248,1.26,4.312c0.841,1.063,1.979,1.595,3.416,1.595s2.576-0.531,3.417-1.595
	C358.318,99.042,358.738,97.604,358.738,95.793z"/>
<path fill="#47443F" d="M367.586,101.729c1.045,0,1.909-0.172,2.59-0.519c0.682-0.346,1.022-0.928,1.022-1.75
	c0-0.391-0.062-0.729-0.182-1.008c-0.122-0.279-0.321-0.531-0.603-0.756c-0.28-0.224-0.648-0.438-1.106-0.645
	c-0.456-0.204-1.022-0.446-1.694-0.728c-0.54-0.224-1.055-0.452-1.539-0.687c-0.485-0.232-0.915-0.503-1.289-0.811
	c-0.373-0.308-0.672-0.677-0.895-1.106c-0.224-0.43-0.336-0.951-0.336-1.568c0-1.175,0.443-2.128,1.329-2.856
	c0.886-0.727,2.104-1.091,3.655-1.091c0.988,0,1.806,0.083,2.449,0.252c0.645,0.167,1.096,0.317,1.358,0.448l-0.421,1.623
	c-0.223-0.112-0.602-0.261-1.134-0.448c-0.531-0.186-1.312-0.279-2.338-0.279c-0.411,0-0.798,0.042-1.162,0.126
	c-0.364,0.085-0.687,0.216-0.966,0.393c-0.279,0.178-0.505,0.403-0.672,0.674c-0.169,0.271-0.252,0.603-0.252,0.996
	c0,0.393,0.074,0.73,0.224,1.01c0.148,0.281,0.369,0.528,0.658,0.744c0.289,0.215,0.644,0.415,1.063,0.602
	c0.421,0.186,0.9,0.391,1.442,0.612c0.56,0.224,1.097,0.451,1.609,0.683c0.515,0.232,0.968,0.513,1.358,0.839
	c0.392,0.327,0.709,0.719,0.953,1.177c0.242,0.456,0.363,1.031,0.363,1.722c0,1.307-0.49,2.296-1.47,2.968s-2.32,1.008-4.019,1.008
	c-1.27,0-2.239-0.108-2.911-0.322s-1.12-0.378-1.344-0.489l0.475-1.653c0.057,0.038,0.179,0.099,0.364,0.184
	c0.186,0.084,0.439,0.176,0.756,0.279c0.317,0.104,0.695,0.192,1.135,0.266C366.498,101.692,367.008,101.729,367.586,101.729z"/>
<path fill="#47443F" d="M388.949,95.793c0,1.139-0.164,2.175-0.49,3.107c-0.326,0.935-0.783,1.727-1.372,2.38
	c-0.587,0.654-1.282,1.162-2.086,1.526c-0.802,0.364-1.688,0.546-2.659,0.546s-1.857-0.182-2.659-0.546
	c-0.804-0.364-1.499-0.872-2.086-1.526c-0.589-0.653-1.047-1.445-1.374-2.38c-0.326-0.933-0.488-1.969-0.488-3.107
	c0-1.14,0.162-2.175,0.488-3.108c0.327-0.933,0.785-1.73,1.374-2.394c0.587-0.662,1.282-1.177,2.086-1.54
	c0.802-0.364,1.688-0.546,2.659-0.546s1.857,0.182,2.659,0.546c0.804,0.363,1.499,0.878,2.086,1.54
	c0.589,0.663,1.046,1.461,1.372,2.394C388.785,93.619,388.949,94.654,388.949,95.793z M387.019,95.793
	c0-1.812-0.421-3.253-1.261-4.327c-0.84-1.073-1.979-1.609-3.416-1.609s-2.576,0.536-3.416,1.609
	c-0.84,1.074-1.261,2.516-1.261,4.327c0,1.811,0.421,3.248,1.261,4.312c0.84,1.063,1.979,1.595,3.416,1.595s2.576-0.531,3.416-1.595
	C386.598,99.042,387.019,97.604,387.019,95.793z"/>
<path fill="#47443F" d="M394.717,108.197h-1.82V89.044c0.542-0.186,1.232-0.363,2.072-0.531s1.904-0.253,3.191-0.253
	c1.064,0,2.031,0.174,2.898,0.519c0.869,0.346,1.614,0.846,2.241,1.499c0.625,0.653,1.109,1.446,1.454,2.38
	c0.346,0.933,0.52,1.987,0.52,3.164c0,1.102-0.146,2.113-0.435,3.037s-0.714,1.717-1.273,2.38c-0.562,0.664-1.247,1.181-2.058,1.555
	c-0.812,0.373-1.741,0.56-2.786,0.56c-0.953,0-1.778-0.137-2.479-0.406c-0.7-0.271-1.209-0.527-1.526-0.77V108.197z
	 M394.717,100.414c0.169,0.13,0.378,0.271,0.63,0.419c0.253,0.149,0.547,0.29,0.883,0.42c0.336,0.132,0.7,0.239,1.092,0.322
	c0.393,0.084,0.802,0.126,1.231,0.126c0.896,0,1.646-0.154,2.255-0.462c0.606-0.308,1.095-0.729,1.47-1.26
	c0.372-0.532,0.645-1.157,0.812-1.876c0.169-0.718,0.253-1.479,0.253-2.281c0-1.905-0.477-3.364-1.428-4.383
	c-0.953-1.018-2.213-1.525-3.781-1.525c-0.896,0-1.619,0.042-2.169,0.125c-0.552,0.084-0.968,0.174-1.247,0.268V100.414z"/>
<path fill="#47443F" d="M409.22,103.017V81.625l1.82-0.336v7.672c0.597-0.224,1.205-0.396,1.82-0.518
	c0.616-0.121,1.231-0.183,1.849-0.183c1.119,0,2.053,0.159,2.8,0.477c0.745,0.317,1.344,0.771,1.792,1.358
	c0.447,0.587,0.76,1.293,0.938,2.113c0.177,0.822,0.266,1.727,0.266,2.716v8.093h-1.82v-7.504c0-1.026-0.068-1.895-0.209-2.604
	c-0.141-0.709-0.373-1.287-0.7-1.735c-0.326-0.449-0.761-0.771-1.302-0.966c-0.542-0.197-1.223-0.294-2.045-0.294
	c-0.317,0-0.658,0.028-1.021,0.083c-0.364,0.056-0.705,0.117-1.022,0.183s-0.602,0.136-0.853,0.209
	c-0.254,0.075-0.416,0.132-0.491,0.169v12.46H409.22z"/>
<path fill="#47443F" d="M428.848,103.325c-0.607-1.141-1.198-2.328-1.769-3.56c-0.571-1.231-1.106-2.477-1.603-3.736
	c-0.496-1.258-0.95-2.519-1.363-3.776c-0.412-1.259-0.766-2.497-1.061-3.711h1.932c0.204,0.896,0.465,1.862,0.782,2.898
	s0.677,2.104,1.077,3.206c0.401,1.102,0.844,2.231,1.328,3.39c0.484,1.156,1.014,2.295,1.586,3.414
	c0.415-1.153,0.784-2.244,1.104-3.269c0.321-1.025,0.618-2.047,0.892-3.064c0.273-1.016,0.538-2.057,0.793-3.119
	c0.254-1.063,0.514-2.215,0.781-3.456h1.82c-0.608,2.708-1.291,5.344-2.049,7.903s-1.586,4.9-2.484,7.021
	c-0.354,0.841-0.721,1.562-1.096,2.17c-0.375,0.606-0.79,1.106-1.25,1.497c-0.459,0.393-0.993,0.682-1.603,0.869
	c-0.609,0.186-1.327,0.279-2.15,0.279c-0.469,0-0.896-0.057-1.279-0.167c-0.385-0.112-0.624-0.197-0.718-0.253l0.364-1.512
	c0.075,0.057,0.286,0.135,0.632,0.238c0.347,0.103,0.706,0.154,1.081,0.154c0.523,0,0.997-0.057,1.417-0.169
	c0.422-0.112,0.8-0.303,1.138-0.573c0.336-0.271,0.641-0.622,0.911-1.05C428.334,104.52,428.597,103.978,428.848,103.325z"/>
<path fill="#47443F" d="M446.795,84.173c0,0.43-0.13,0.77-0.391,1.021c-0.263,0.252-0.58,0.378-0.953,0.378s-0.69-0.126-0.951-0.378
	c-0.262-0.252-0.393-0.592-0.393-1.021s0.131-0.771,0.393-1.022c0.261-0.251,0.578-0.378,0.951-0.378s0.69,0.127,0.953,0.378
	C446.665,83.403,446.795,83.744,446.795,84.173z M446.376,103.017h-1.82V88.542h1.82V103.017z"/>
<path fill="#47443F" d="M451.191,89.044c0.541-0.148,1.27-0.316,2.185-0.503c0.914-0.188,2.034-0.281,3.359-0.281
	c1.102,0,2.021,0.159,2.758,0.477s1.325,0.771,1.765,1.358c0.438,0.587,0.751,1.293,0.938,2.113
	c0.188,0.822,0.281,1.727,0.281,2.716v8.093h-1.82v-7.504c0-1.026-0.07-1.895-0.211-2.604c-0.14-0.709-0.374-1.287-0.7-1.735
	c-0.327-0.449-0.755-0.771-1.288-0.966c-0.531-0.197-1.199-0.294-2.001-0.294c-0.859,0-1.602,0.047-2.227,0.139
	c-0.625,0.094-1.031,0.179-1.218,0.254v12.711h-1.82V89.044z"/>
<path fill="#47443F" d="M478.267,103.185c-0.318,0-0.686-0.014-1.106-0.042c-0.42-0.028-0.85-0.065-1.287-0.112
	c-0.439-0.045-0.854-0.102-1.247-0.167c-0.392-0.065-0.728-0.136-1.008-0.211V83.978c0.336-0.094,0.71-0.174,1.12-0.239
	c0.41-0.064,0.835-0.12,1.273-0.167c0.439-0.047,0.869-0.08,1.289-0.099c0.419-0.019,0.807-0.028,1.161-0.028
	c1.046,0,2.039,0.084,2.983,0.252c0.941,0.168,1.767,0.448,2.478,0.839c0.708,0.392,1.273,0.907,1.694,1.552
	c0.42,0.644,0.629,1.44,0.629,2.391c0,1.043-0.266,1.934-0.798,2.67c-0.531,0.736-1.245,1.244-2.143,1.523
	c0.562,0.131,1.073,0.317,1.541,0.561c0.466,0.242,0.876,0.557,1.231,0.939c0.354,0.383,0.631,0.85,0.826,1.401
	c0.197,0.552,0.294,1.211,0.294,1.977c0,1.831-0.729,3.229-2.185,4.192C483.559,102.705,481.309,103.185,478.267,103.185z
	 M475.523,92.07h3.695c0.69,0,1.344-0.052,1.959-0.153c0.617-0.103,1.153-0.289,1.611-0.558c0.456-0.271,0.815-0.633,1.078-1.089
	c0.261-0.455,0.392-1.036,0.392-1.742c0-0.633-0.141-1.167-0.42-1.604c-0.28-0.437-0.677-0.794-1.19-1.074
	c-0.513-0.277-1.125-0.478-1.835-0.598c-0.709-0.122-1.492-0.182-2.352-0.182c-0.69,0-1.273,0.019-1.75,0.055
	c-0.475,0.037-0.872,0.084-1.188,0.141V92.07z M475.523,93.693v7.672c0.279,0.038,0.699,0.08,1.259,0.127s1.13,0.068,1.708,0.068
	c0.857,0,1.693-0.055,2.506-0.167s1.527-0.318,2.143-0.618c0.615-0.301,1.109-0.713,1.484-1.236c0.372-0.525,0.56-1.2,0.56-2.023
	c0-0.75-0.132-1.372-0.393-1.869c-0.261-0.496-0.634-0.889-1.12-1.18c-0.484-0.29-1.078-0.492-1.778-0.604s-1.479-0.169-2.337-0.169
	H475.523z"/>
<path fill="#47443F" d="M493.386,84.173c0,0.43-0.13,0.77-0.391,1.021c-0.263,0.252-0.58,0.378-0.953,0.378
	c-0.374,0-0.69-0.126-0.952-0.378c-0.261-0.252-0.392-0.592-0.392-1.021s0.131-0.771,0.392-1.022
	c0.262-0.251,0.578-0.378,0.952-0.378c0.373,0,0.69,0.127,0.953,0.378C493.256,83.403,493.386,83.744,493.386,84.173z
	 M492.967,103.017h-1.82V88.542h1.82V103.017z"/>
<path fill="#47443F" d="M510.131,95.793c0,1.139-0.164,2.175-0.49,3.107c-0.327,0.935-0.785,1.727-1.372,2.38
	c-0.588,0.654-1.284,1.162-2.086,1.526c-0.804,0.364-1.689,0.546-2.661,0.546c-0.971,0-1.856-0.182-2.659-0.546
	c-0.804-0.364-1.499-0.872-2.086-1.526c-0.588-0.653-1.046-1.445-1.372-2.38c-0.326-0.933-0.49-1.969-0.49-3.107
	c0-1.14,0.164-2.175,0.49-3.108c0.326-0.933,0.784-1.73,1.372-2.394c0.587-0.662,1.282-1.177,2.086-1.54
	c0.803-0.364,1.688-0.546,2.659-0.546c0.972,0,1.857,0.182,2.661,0.546c0.802,0.363,1.498,0.878,2.086,1.54
	c0.587,0.663,1.045,1.461,1.372,2.394C509.967,93.619,510.131,94.654,510.131,95.793z M508.198,95.793
	c0-1.812-0.421-3.253-1.26-4.327c-0.841-1.073-1.979-1.609-3.417-1.609s-2.575,0.536-3.416,1.609
	c-0.839,1.074-1.259,2.516-1.259,4.327c0,1.811,0.42,3.248,1.259,4.312c0.841,1.063,1.979,1.595,3.416,1.595
	s2.576-0.531,3.417-1.595C507.777,99.042,508.198,97.604,508.198,95.793z"/>
<path fill="#47443F" d="M517.745,103.27c-0.616-0.021-1.151-0.099-1.609-0.239c-0.458-0.139-0.841-0.354-1.148-0.644
	s-0.541-0.663-0.7-1.12c-0.158-0.457-0.237-1.031-0.237-1.723v-17.92l1.82-0.336v18.2c0,0.448,0.042,0.808,0.125,1.078
	c0.084,0.271,0.211,0.485,0.378,0.644c0.169,0.159,0.388,0.276,0.658,0.35c0.27,0.075,0.594,0.141,0.967,0.197L517.745,103.27z"/>
<path fill="#47443F" d="M533.565,95.793c0,1.139-0.164,2.175-0.491,3.107c-0.326,0.935-0.782,1.727-1.371,2.38
	c-0.588,0.654-1.283,1.162-2.086,1.526c-0.802,0.364-1.689,0.546-2.66,0.546c-0.97,0-1.857-0.182-2.659-0.546
	c-0.803-0.364-1.498-0.872-2.086-1.526c-0.589-0.653-1.047-1.445-1.373-2.38c-0.327-0.933-0.489-1.969-0.489-3.107
	c0-1.14,0.162-2.175,0.489-3.108c0.326-0.933,0.784-1.73,1.373-2.394c0.588-0.662,1.283-1.177,2.086-1.54
	c0.802-0.364,1.689-0.546,2.659-0.546c0.971,0,1.858,0.182,2.66,0.546c0.803,0.363,1.498,0.878,2.086,1.54
	c0.589,0.663,1.045,1.461,1.371,2.394C533.401,93.619,533.565,94.654,533.565,95.793z M531.634,95.793
	c0-1.812-0.42-3.253-1.261-4.327c-0.839-1.073-1.979-1.609-3.416-1.609s-2.576,0.536-3.415,1.609
	c-0.841,1.074-1.261,2.516-1.261,4.327c0,1.811,0.42,3.248,1.261,4.312c0.839,1.063,1.978,1.595,3.415,1.595
	s2.577-0.531,3.416-1.595C531.214,99.042,531.634,97.604,531.634,95.793z"/>
<path fill="#47443F" d="M546.948,101.337c-0.111,0.094-0.28,0.201-0.503,0.321c-0.226,0.122-0.5,0.249-0.827,0.378
	c-0.326,0.132-0.7,0.238-1.12,0.322c-0.419,0.084-0.891,0.127-1.414,0.127c-0.839,0-1.651-0.132-2.436-0.393
	c-0.783-0.261-1.469-0.672-2.059-1.232c-0.587-0.56-1.059-1.283-1.414-2.169c-0.354-0.888-0.531-1.966-0.531-3.234
	c0-1.026,0.158-1.979,0.476-2.856c0.317-0.877,0.771-1.638,1.359-2.281c0.587-0.646,1.306-1.148,2.154-1.513
	c0.851-0.364,1.807-0.547,2.87-0.547c1.344,0,2.422,0.089,3.234,0.268c0.812,0.177,1.479,0.35,2.002,0.517v13.216
	c0,2.166-0.56,3.711-1.68,4.635c-1.12,0.925-2.81,1.386-5.067,1.386c-0.935,0-1.778-0.07-2.534-0.209
	c-0.756-0.141-1.404-0.305-1.947-0.491l0.364-1.651c0.448,0.205,1.06,0.383,1.835,0.531c0.774,0.15,1.555,0.225,2.337,0.225
	c1.718,0,2.964-0.331,3.739-0.993c0.773-0.664,1.161-1.797,1.161-3.403V101.337z M546.92,90.306
	c-0.317-0.094-0.727-0.184-1.231-0.268c-0.505-0.083-1.224-0.125-2.156-0.125c-0.784,0-1.479,0.135-2.086,0.406
	c-0.606,0.271-1.125,0.653-1.553,1.146c-0.43,0.496-0.757,1.083-0.981,1.765c-0.224,0.681-0.336,1.433-0.336,2.255
	c0,0.951,0.131,1.769,0.393,2.449c0.261,0.682,0.602,1.236,1.021,1.666s0.901,0.742,1.442,0.938
	c0.542,0.197,1.092,0.294,1.651,0.294c0.822,0,1.573-0.12,2.255-0.362c0.681-0.244,1.208-0.523,1.581-0.841V90.306z"/>
<path fill="#47443F" d="M557.504,103.325c-0.607-1.141-1.198-2.328-1.769-3.56c-0.572-1.231-1.106-2.477-1.604-3.736
	c-0.495-1.258-0.949-2.519-1.362-3.776c-0.412-1.259-0.766-2.497-1.061-3.711h1.931c0.205,0.896,0.466,1.862,0.783,2.898
	s0.677,2.104,1.076,3.206c0.402,1.102,0.844,2.231,1.328,3.39c0.484,1.156,1.015,2.295,1.586,3.414
	c0.416-1.153,0.785-2.244,1.105-3.269c0.321-1.025,0.618-2.047,0.892-3.064c0.273-1.016,0.538-2.057,0.792-3.119
	c0.255-1.063,0.515-2.215,0.781-3.456h1.82c-0.607,2.708-1.29,5.344-2.048,7.903s-1.586,4.9-2.484,7.021
	c-0.354,0.841-0.721,1.562-1.096,2.17c-0.375,0.606-0.79,1.106-1.25,1.497c-0.459,0.393-0.993,0.682-1.603,0.869
	c-0.609,0.186-1.327,0.279-2.15,0.279c-0.469,0-0.896-0.057-1.279-0.167c-0.385-0.112-0.624-0.197-0.718-0.253l0.364-1.512
	c0.075,0.057,0.286,0.135,0.631,0.238c0.348,0.103,0.707,0.154,1.082,0.154c0.523,0,0.996-0.057,1.417-0.169
	c0.422-0.112,0.8-0.303,1.138-0.573c0.336-0.271,0.641-0.622,0.91-1.05C556.99,104.52,557.253,103.978,557.504,103.325z"/>
<path fill="#47443F" d="M577.607,88.206c0.953,0,1.759,0.135,2.422,0.405c0.662,0.271,1.2,0.645,1.61,1.12
	c0.41,0.477,0.71,1.04,0.896,1.693c0.188,0.655,0.28,1.364,0.28,2.128v9.129c-0.187,0.056-0.457,0.117-0.812,0.183
	s-0.766,0.134-1.232,0.209c-0.466,0.075-0.984,0.136-1.554,0.183c-0.57,0.046-1.152,0.069-1.75,0.069
	c-0.766,0-1.47-0.083-2.113-0.252c-0.645-0.167-1.205-0.435-1.68-0.798c-0.477-0.364-0.851-0.83-1.121-1.4
	c-0.271-0.568-0.406-1.264-0.406-2.086c0-0.783,0.148-1.456,0.449-2.016c0.298-0.56,0.717-1.021,1.259-1.386
	c0.541-0.364,1.187-0.63,1.933-0.799c0.746-0.167,1.559-0.251,2.437-0.251c0.261,0,0.536,0.014,0.825,0.042s0.568,0.065,0.84,0.112
	c0.271,0.047,0.504,0.094,0.7,0.139c0.195,0.047,0.331,0.09,0.406,0.127v-0.896c0-0.504-0.037-0.994-0.112-1.469
	c-0.075-0.477-0.237-0.906-0.49-1.289c-0.252-0.382-0.606-0.691-1.064-0.924c-0.456-0.232-1.06-0.35-1.805-0.35
	c-1.064,0-1.857,0.074-2.381,0.223c-0.522,0.15-0.905,0.272-1.147,0.364l-0.253-1.595c0.317-0.15,0.808-0.289,1.471-0.421
	C575.876,88.271,576.675,88.206,577.607,88.206z M577.776,101.701c0.709,0,1.329-0.023,1.862-0.07
	c0.531-0.045,0.984-0.105,1.357-0.181v-5.097c-0.206-0.093-0.532-0.191-0.981-0.294c-0.446-0.102-1.063-0.153-1.847-0.153
	c-0.448,0-0.915,0.033-1.399,0.097c-0.486,0.065-0.935,0.206-1.344,0.421c-0.411,0.215-0.747,0.509-1.01,0.883
	c-0.261,0.373-0.391,0.867-0.391,1.482c0,0.542,0.088,1,0.266,1.372c0.177,0.375,0.428,0.672,0.756,0.896
	c0.327,0.224,0.718,0.388,1.176,0.489C576.679,101.65,577.196,101.701,577.776,101.701z"/>
<path fill="#47443F" d="M587.464,89.044c0.54-0.148,1.269-0.316,2.184-0.503c0.914-0.188,2.035-0.281,3.359-0.281
	c1.102,0,2.021,0.159,2.758,0.477c0.738,0.317,1.325,0.771,1.765,1.358c0.438,0.587,0.751,1.293,0.938,2.113
	c0.188,0.822,0.281,1.727,0.281,2.716v8.093h-1.82v-7.504c0-1.026-0.07-1.895-0.211-2.604c-0.14-0.709-0.374-1.287-0.7-1.735
	c-0.326-0.449-0.755-0.771-1.287-0.966c-0.531-0.197-1.2-0.294-2.002-0.294c-0.859,0-1.602,0.047-2.227,0.139
	c-0.625,0.094-1.031,0.179-1.217,0.254v12.711h-1.82V89.044z"/>
<path fill="#47443F" d="M614.902,102.57c-0.542,0.186-1.231,0.362-2.071,0.531c-0.841,0.169-1.905,0.252-3.192,0.252
	c-1.064,0-2.03-0.172-2.898-0.518c-0.867-0.346-1.614-0.846-2.239-1.498c-0.627-0.653-1.111-1.447-1.456-2.38
	c-0.346-0.933-0.519-1.987-0.519-3.164c0-1.102,0.145-2.114,0.434-3.038c0.289-0.925,0.715-1.723,1.273-2.395
	c0.562-0.672,1.247-1.194,2.06-1.567c0.812-0.374,1.739-0.562,2.786-0.562c0.951,0,1.778,0.137,2.479,0.406
	c0.699,0.272,1.207,0.528,1.524,0.771v-7.784l1.82-0.336V102.57z M613.082,91.173c-0.167-0.13-0.378-0.271-0.63-0.421
	c-0.251-0.148-0.545-0.289-0.881-0.42c-0.338-0.13-0.7-0.237-1.092-0.322c-0.393-0.083-0.804-0.125-1.233-0.125
	c-0.896,0-1.646,0.158-2.253,0.476c-0.607,0.318-1.097,0.742-1.471,1.274c-0.373,0.531-0.644,1.158-0.812,1.875
	c-0.167,0.719-0.251,1.479-0.251,2.283c0,1.903,0.475,3.364,1.428,4.381c0.952,1.019,2.211,1.526,3.78,1.526
	c0.895,0,1.618-0.042,2.17-0.126c0.55-0.083,0.966-0.172,1.245-0.266V91.173z"/>
<path fill="#47443F" d="M634.949,100.216c-0.188-0.465-0.455-1.081-0.802-1.847s-0.735-1.602-1.167-2.506
	c-0.432-0.906-0.872-1.839-1.322-2.8c-0.449-0.961-0.881-1.863-1.293-2.703c-0.413-0.84-0.778-1.577-1.098-2.211
	c-0.318-0.635-0.553-1.083-0.703-1.344c-0.242,2.332-0.433,4.867-0.573,7.602s-0.266,5.604-0.378,8.609h-1.877
	c0.169-3.528,0.359-6.906,0.575-10.137c0.214-3.228,0.479-6.318,0.797-9.267h1.682c0.561,0.933,1.159,2.011,1.795,3.232
	c0.636,1.224,1.268,2.492,1.894,3.81c0.627,1.315,1.234,2.612,1.824,3.891c0.589,1.279,1.107,2.433,1.556,3.459
	c0.45-1.026,0.969-2.18,1.558-3.459c0.59-1.278,1.197-2.575,1.824-3.891c0.626-1.317,1.258-2.586,1.894-3.81
	c0.636-1.222,1.234-2.3,1.795-3.232h1.597c0.317,2.948,0.583,6.039,0.797,9.267c0.216,3.23,0.406,6.608,0.575,10.137h-1.933
	c-0.111-3.005-0.237-5.875-0.378-8.609c-0.14-2.734-0.331-5.27-0.573-7.602c-0.15,0.261-0.383,0.709-0.7,1.344
	c-0.317,0.634-0.682,1.371-1.093,2.211c-0.41,0.84-0.839,1.742-1.287,2.703s-0.888,1.894-1.315,2.8
	c-0.43,0.904-0.817,1.74-1.163,2.506c-0.345,0.766-0.612,1.382-0.798,1.847H634.949z"/>
<path fill="#47443F" d="M649.452,95.765c0-1.269,0.183-2.375,0.547-3.318c0.364-0.942,0.839-1.731,1.429-2.366
	c0.587-0.634,1.259-1.106,2.016-1.414c0.756-0.308,1.534-0.461,2.337-0.461c1.773,0,3.188,0.578,4.242,1.736
	c1.055,1.156,1.583,2.938,1.583,5.347c0,0.15-0.005,0.3-0.014,0.448c-0.01,0.15-0.023,0.289-0.043,0.421h-10.164
	c0.057,1.773,0.494,3.136,1.316,4.087c0.821,0.952,2.128,1.429,3.92,1.429c0.989,0,1.773-0.094,2.352-0.28
	c0.578-0.186,0.998-0.345,1.261-0.477l0.336,1.569c-0.263,0.149-0.751,0.326-1.47,0.531c-0.719,0.206-1.564,0.308-2.535,0.308
	c-1.27,0-2.352-0.187-3.248-0.56c-0.896-0.373-1.633-0.896-2.211-1.568c-0.58-0.672-1-1.469-1.261-2.395
	C649.584,97.879,649.452,96.867,649.452,95.765z M659.729,94.617c-0.037-1.511-0.392-2.688-1.063-3.528
	c-0.672-0.839-1.624-1.259-2.856-1.259c-0.653,0-1.236,0.131-1.75,0.392s-0.961,0.611-1.344,1.05
	c-0.383,0.439-0.682,0.947-0.896,1.525c-0.216,0.58-0.342,1.186-0.378,1.82H659.729z"/>
<path fill="#47443F" d="M677.173,102.57c-0.542,0.186-1.231,0.362-2.072,0.531s-1.904,0.252-3.192,0.252
	c-1.063,0-2.029-0.172-2.898-0.518c-0.867-0.346-1.613-0.846-2.238-1.498c-0.627-0.653-1.111-1.447-1.457-2.38
	c-0.345-0.933-0.519-1.987-0.519-3.164c0-1.102,0.146-2.114,0.435-3.038c0.289-0.925,0.714-1.723,1.273-2.395
	c0.561-0.672,1.247-1.194,2.06-1.567c0.811-0.374,1.739-0.562,2.786-0.562c0.951,0,1.777,0.137,2.478,0.406
	c0.7,0.272,1.208,0.528,1.525,0.771v-7.784l1.82-0.336V102.57z M675.353,91.173c-0.167-0.13-0.378-0.271-0.63-0.421
	c-0.252-0.148-0.545-0.289-0.881-0.42c-0.338-0.13-0.7-0.237-1.093-0.322c-0.392-0.083-0.803-0.125-1.232-0.125
	c-0.896,0-1.647,0.158-2.253,0.476c-0.608,0.318-1.098,0.742-1.471,1.274c-0.373,0.531-0.644,1.158-0.812,1.875
	c-0.167,0.719-0.252,1.479-0.252,2.283c0,1.903,0.476,3.364,1.429,4.381c0.951,1.019,2.211,1.526,3.779,1.526
	c0.896,0,1.619-0.042,2.171-0.126c0.55-0.083,0.965-0.172,1.245-0.266V91.173z"/>
<path fill="#47443F" d="M684.228,84.173c0,0.43-0.13,0.77-0.391,1.021c-0.263,0.252-0.58,0.378-0.953,0.378
	c-0.374,0-0.69-0.126-0.952-0.378c-0.261-0.252-0.392-0.592-0.392-1.021s0.131-0.771,0.392-1.022
	c0.262-0.251,0.578-0.378,0.952-0.378c0.373,0,0.69,0.127,0.953,0.378C684.098,83.403,684.228,83.744,684.228,84.173z
	 M683.809,103.017h-1.82V88.542h1.82V103.017z"/>
<path fill="#47443F" d="M694.616,103.325c-1.12,0-2.109-0.177-2.969-0.531c-0.857-0.354-1.571-0.864-2.142-1.526
	c-0.569-0.663-1.004-1.457-1.302-2.38c-0.299-0.924-0.448-1.945-0.448-3.065c0-1.14,0.154-2.176,0.462-3.108
	c0.308-0.935,0.752-1.735,1.33-2.407c0.578-0.674,1.278-1.191,2.1-1.555c0.822-0.364,1.745-0.546,2.772-0.546
	c0.784,0,1.517,0.065,2.198,0.195c0.681,0.132,1.208,0.299,1.583,0.505l-0.477,1.567c-0.374-0.187-0.794-0.336-1.262-0.448
	c-0.465-0.111-1.09-0.168-1.875-0.168c-1.605,0-2.823,0.518-3.654,1.554c-0.83,1.036-1.245,2.506-1.245,4.411
	c0,0.857,0.092,1.646,0.279,2.365c0.187,0.719,0.491,1.334,0.909,1.849c0.421,0.513,0.963,0.914,1.625,1.203
	c0.663,0.29,1.471,0.435,2.422,0.435c0.785,0,1.442-0.088,1.974-0.266c0.533-0.179,0.921-0.332,1.163-0.463l0.392,1.568
	c-0.336,0.187-0.864,0.369-1.583,0.546C696.15,103.237,695.4,103.325,694.616,103.325z"/>
<path fill="#47443F" d="M703.743,84.173c0,0.43-0.13,0.77-0.391,1.021c-0.263,0.252-0.58,0.378-0.953,0.378
	c-0.374,0-0.69-0.126-0.952-0.378c-0.261-0.252-0.392-0.592-0.392-1.021s0.131-0.771,0.392-1.022
	c0.262-0.251,0.578-0.378,0.952-0.378c0.373,0,0.69,0.127,0.953,0.378C703.613,83.403,703.743,83.744,703.743,84.173z
	 M703.324,103.017h-1.82V88.542h1.82V103.017z"/>
<path fill="#47443F" d="M708.14,89.044c0.541-0.148,1.269-0.316,2.185-0.503c0.914-0.188,2.034-0.281,3.359-0.281
	c1.102,0,2.021,0.159,2.758,0.477s1.325,0.771,1.764,1.358c0.439,0.587,0.752,1.293,0.938,2.113
	c0.188,0.822,0.281,1.727,0.281,2.716v8.093h-1.82v-7.504c0-1.026-0.07-1.895-0.211-2.604c-0.139-0.709-0.373-1.287-0.699-1.735
	c-0.327-0.449-0.755-0.771-1.288-0.966c-0.531-0.197-1.2-0.294-2.001-0.294c-0.859,0-1.602,0.047-2.227,0.139
	c-0.625,0.094-1.031,0.179-1.218,0.254v12.711h-1.82V89.044z"/>
<path fill="#47443F" d="M723.202,95.765c0-1.269,0.183-2.375,0.547-3.318c0.364-0.942,0.839-1.731,1.429-2.366
	c0.587-0.634,1.259-1.106,2.016-1.414c0.756-0.308,1.534-0.461,2.337-0.461c1.773,0,3.188,0.578,4.242,1.736
	c1.055,1.156,1.583,2.938,1.583,5.347c0,0.15-0.005,0.3-0.014,0.448c-0.01,0.15-0.023,0.289-0.043,0.421h-10.164
	c0.057,1.773,0.494,3.136,1.316,4.087c0.821,0.952,2.128,1.429,3.92,1.429c0.989,0,1.773-0.094,2.352-0.28
	c0.578-0.186,0.998-0.345,1.261-0.477l0.336,1.569c-0.263,0.149-0.751,0.326-1.47,0.531c-0.719,0.206-1.564,0.308-2.535,0.308
	c-1.27,0-2.352-0.187-3.248-0.56c-0.896-0.373-1.633-0.896-2.211-1.568c-0.58-0.672-1-1.469-1.261-2.395
	C723.334,97.879,723.202,96.867,723.202,95.765z M733.479,94.617c-0.037-1.511-0.392-2.688-1.063-3.528
	c-0.672-0.839-1.624-1.259-2.856-1.259c-0.653,0-1.236,0.131-1.75,0.392s-0.961,0.611-1.344,1.05
	c-0.383,0.439-0.682,0.947-0.896,1.525c-0.216,0.58-0.342,1.186-0.378,1.82H733.479z"/>
</svg>
